<?xml version="1.0" encoding="utf-8"?>
<!-- Generator: Adobe Illustrator 27.7.0, SVG Export Plug-In . SVG Version: 6.00 Build 0)  -->
<svg version="1.1" id="Layer_1" xmlns="http://www.w3.org/2000/svg" xmlns:xlink="http://www.w3.org/1999/xlink" x="0px" y="0px"
	 viewBox="0 0 512.1 512.2" style="enable-background:new 0 0 512.1 512.2;" xml:space="preserve">
<style type="text/css">
	.st0{fill:#FFFFFF;}
</style>
<path class="st0" d="M0,133.1c0-35.6,13.4-68.9,39-94.3l22.4-19.4c25.8-25.8,67.6-25.8,93.4,0c0.6,0.6,40.1,52,40.1,52
	c24.5,25.4,24.5,65.9,0,91.3l-24.8,31.1c31.1,70.6,79.6,119.2,147.8,148.3l31.1-25c25.4-24.3,65.7-24.3,91.3,0
	c0,0,51.4,39.5,52,40.1c25.8,25.8,25.8,67.6,1.1,92.4l-21.3,24.5c-24.5,24.5-57.8,38-93.4,38C216.1,512.2,0,296.3,0,133.3V133.1
	L0,133.1z"/>
</svg>
