<?xml version="1.0" encoding="utf-8"?>
<!-- Generator: Adobe Illustrator 27.7.0, SVG Export Plug-In . SVG Version: 6.00 Build 0)  -->
<svg version="1.1" id="Capa_1" xmlns="http://www.w3.org/2000/svg" xmlns:xlink="http://www.w3.org/1999/xlink" x="0px" y="0px"
	 viewBox="0 0 512 512" style="enable-background:new 0 0 512 512;" xml:space="preserve">
<style type="text/css">
	.st0{fill:#FFFFFF;}
</style>
<g>
	<path class="st0" d="M256,512c141.4,0,256-114.6,256-256S397.4,0,256,0S0,114.6,0,256C0.2,397.3,114.7,511.8,256,512z M150.4,150.4
		c58.4-58.2,152.8-58.2,211.2,0c8.2,8.5,8,22-0.5,30.2c-8.3,8-21.4,8-29.6,0c-41.7-41.6-109.2-41.6-150.8,0s-41.6,109.2,0,150.8
		c41.7,41.6,109.2,41.6,150.8,0c8.5-8.2,22-8,30.2,0.5c8,8.3,8,21.4,0,29.6c-58.3,58.3-152.9,58.3-211.2,0
		C92.1,303.3,92.1,208.7,150.4,150.4L150.4,150.4z"/>
</g>
</svg>
